<?xml version="1.0" standalone="no"?>
<!DOCTYPE svg PUBLIC "-//W3C//DTD SVG 20010904//EN"
 "http://www.w3.org/TR/2001/REC-SVG-20010904/DTD/svg10.dtd">
<svg version="1.0" xmlns="http://www.w3.org/2000/svg"
 width="32.000000pt" height="32.000000pt" viewBox="0 0 32.000000 32.000000"
 preserveAspectRatio="xMidYMid meet">

<g transform="translate(0.000000,32.000000) scale(0.100000,-0.100000)"
fill="#000000" stroke="none">
<path d="M92 290 c-34 -15 -47 -29 -63 -66 -28 -62 -19 -106 31 -156 33 -33
44 -38 84 -38 25 0 46 4 46 10 0 5 -7 7 -15 4 -11 -5 -15 1 -15 19 0 16 7 27
18 30 16 4 16 5 0 6 -25 1 -25 58 0 64 16 4 16 5 0 6 -13 1 -18 10 -18 31 0
27 3 30 30 30 25 0 31 -5 38 -32 5 -23 15 -34 29 -36 12 -2 24 -11 26 -20 3
-9 5 4 6 30 1 54 -31 102 -86 124 -43 18 -60 17 -111 -6z m56 -22 c-2 -15 -11
-24 -25 -26 -27 -4 -30 10 -7 32 22 23 36 20 32 -6z m44 5 c25 -22 23 -33 -7
-33 -20 0 -25 5 -25 25 0 29 7 31 32 8z m-104 -13 c-13 -21 -28 -27 -28 -10 0
5 8 14 18 19 23 14 24 14 10 -9z m162 -12 c0 -16 -20 -7 -30 12 -10 19 -10 20
9 8 12 -7 21 -16 21 -20z m-180 -43 c0 -14 -7 -28 -15 -32 -22 -8 -28 2 -21
32 8 33 36 33 36 0z m80 -5 c0 -28 -3 -30 -35 -30 -30 0 -35 3 -35 23 0 31 7
37 42 37 24 0 28 -4 28 -30z m124 14 c11 -28 6 -44 -13 -44 -13 0 -20 9 -23
30 -4 23 -1 30 13 30 9 0 20 -7 23 -16z m-206 -87 c2 -18 -1 -27 -11 -27 -15
0 -27 20 -27 47 0 27 35 9 38 -20z m82 2 c0 -28 -2 -30 -32 -27 -28 2 -34 8
-36 31 -3 25 -1 27 32 27 33 0 36 -2 36 -31z m-60 -59 c10 -19 10 -20 -9 -8
-22 13 -28 28 -11 28 5 0 14 -9 20 -20z m60 -5 c0 -29 -7 -31 -32 -8 -25 22
-23 33 7 33 20 0 25 -5 25 -25z"/>
<path d="M210 94 c0 -57 2 -65 16 -60 10 4 22 -1 29 -10 15 -21 39 -9 32 17
-3 12 0 19 9 19 8 0 14 3 14 7 0 10 -82 93 -92 93 -4 0 -8 -30 -8 -66z m49 12
c14 -15 19 -26 12 -31 -8 -4 -8 -12 -1 -26 6 -11 7 -19 1 -19 -5 0 -12 7 -15
16 -4 9 -13 14 -21 10 -12 -4 -15 3 -15 34 0 46 8 49 39 16z"/>
</g>
</svg>
